<mxfile host="Electron" modified="2025-06-06T17:44:41.136Z" agent="Mozilla/5.0 (Windows NT 10.0; Win64; x64) AppleWebKit/537.36 (KHTML, like Gecko) draw.io/24.2.5 Chrome/120.0.6099.109 Electron/28.1.0 Safari/537.36" etag="uzaeDqO0IeN4-gQQRoax" version="24.2.5" type="device">
  <diagram name="Page-1" id="Kfh8t_Ak4ihm8aRNfu7Z">
    <mxGraphModel dx="915" dy="733" grid="1" gridSize="10" guides="1" tooltips="1" connect="1" arrows="1" fold="1" page="1" pageScale="1" pageWidth="850" pageHeight="1100" math="0" shadow="0">
      <root>
        <mxCell id="0" />
        <mxCell id="1" parent="0" />
        <mxCell id="OEtIv18NF1MfXvZT3ipg-71" value="  Device                            Interface                        IP Address" style="shape=table;startSize=30;container=1;collapsible=0;childLayout=tableLayout;strokeColor=default;fontSize=16;" vertex="1" parent="1">
          <mxGeometry x="170" y="180" width="510" height="150" as="geometry" />
        </mxCell>
        <mxCell id="OEtIv18NF1MfXvZT3ipg-72" value="" style="shape=tableRow;horizontal=0;startSize=0;swimlaneHead=0;swimlaneBody=0;strokeColor=inherit;top=0;left=0;bottom=0;right=0;collapsible=0;dropTarget=0;fillColor=none;points=[[0,0.5],[1,0.5]];portConstraint=eastwest;fontSize=16;" vertex="1" parent="OEtIv18NF1MfXvZT3ipg-71">
          <mxGeometry y="30" width="510" height="40" as="geometry" />
        </mxCell>
        <mxCell id="OEtIv18NF1MfXvZT3ipg-73" value="R3" style="shape=partialRectangle;html=1;whiteSpace=wrap;connectable=0;strokeColor=inherit;overflow=hidden;fillColor=none;top=0;left=0;bottom=0;right=0;pointerEvents=1;fontSize=16;" vertex="1" parent="OEtIv18NF1MfXvZT3ipg-72">
          <mxGeometry width="170" height="40" as="geometry">
            <mxRectangle width="170" height="40" as="alternateBounds" />
          </mxGeometry>
        </mxCell>
        <mxCell id="OEtIv18NF1MfXvZT3ipg-74" value="e0/2" style="shape=partialRectangle;html=1;whiteSpace=wrap;connectable=0;strokeColor=inherit;overflow=hidden;fillColor=none;top=0;left=0;bottom=0;right=0;pointerEvents=1;fontSize=16;" vertex="1" parent="OEtIv18NF1MfXvZT3ipg-72">
          <mxGeometry x="170" width="170" height="40" as="geometry">
            <mxRectangle width="170" height="40" as="alternateBounds" />
          </mxGeometry>
        </mxCell>
        <mxCell id="OEtIv18NF1MfXvZT3ipg-75" value="209.165.201.3" style="shape=partialRectangle;html=1;whiteSpace=wrap;connectable=0;strokeColor=inherit;overflow=hidden;fillColor=none;top=0;left=0;bottom=0;right=0;pointerEvents=1;fontSize=16;" vertex="1" parent="OEtIv18NF1MfXvZT3ipg-72">
          <mxGeometry x="340" width="170" height="40" as="geometry">
            <mxRectangle width="170" height="40" as="alternateBounds" />
          </mxGeometry>
        </mxCell>
        <mxCell id="OEtIv18NF1MfXvZT3ipg-76" value="" style="shape=tableRow;horizontal=0;startSize=0;swimlaneHead=0;swimlaneBody=0;strokeColor=inherit;top=0;left=0;bottom=0;right=0;collapsible=0;dropTarget=0;fillColor=none;points=[[0,0.5],[1,0.5]];portConstraint=eastwest;fontSize=16;" vertex="1" parent="OEtIv18NF1MfXvZT3ipg-71">
          <mxGeometry y="70" width="510" height="40" as="geometry" />
        </mxCell>
        <mxCell id="OEtIv18NF1MfXvZT3ipg-77" value="ISP" style="shape=partialRectangle;html=1;whiteSpace=wrap;connectable=0;strokeColor=inherit;overflow=hidden;fillColor=none;top=0;left=0;bottom=0;right=0;pointerEvents=1;fontSize=16;" vertex="1" parent="OEtIv18NF1MfXvZT3ipg-76">
          <mxGeometry width="170" height="40" as="geometry">
            <mxRectangle width="170" height="40" as="alternateBounds" />
          </mxGeometry>
        </mxCell>
        <mxCell id="OEtIv18NF1MfXvZT3ipg-78" value="e0/0" style="shape=partialRectangle;html=1;whiteSpace=wrap;connectable=0;strokeColor=inherit;overflow=hidden;fillColor=none;top=0;left=0;bottom=0;right=0;pointerEvents=1;fontSize=16;" vertex="1" parent="OEtIv18NF1MfXvZT3ipg-76">
          <mxGeometry x="170" width="170" height="40" as="geometry">
            <mxRectangle width="170" height="40" as="alternateBounds" />
          </mxGeometry>
        </mxCell>
        <mxCell id="OEtIv18NF1MfXvZT3ipg-79" value="209.165.201.1" style="shape=partialRectangle;html=1;whiteSpace=wrap;connectable=0;strokeColor=inherit;overflow=hidden;fillColor=none;top=0;left=0;bottom=0;right=0;pointerEvents=1;fontSize=16;" vertex="1" parent="OEtIv18NF1MfXvZT3ipg-76">
          <mxGeometry x="340" width="170" height="40" as="geometry">
            <mxRectangle width="170" height="40" as="alternateBounds" />
          </mxGeometry>
        </mxCell>
        <mxCell id="OEtIv18NF1MfXvZT3ipg-80" value="" style="shape=tableRow;horizontal=0;startSize=0;swimlaneHead=0;swimlaneBody=0;strokeColor=inherit;top=0;left=0;bottom=0;right=0;collapsible=0;dropTarget=0;fillColor=none;points=[[0,0.5],[1,0.5]];portConstraint=eastwest;fontSize=16;" vertex="1" parent="OEtIv18NF1MfXvZT3ipg-71">
          <mxGeometry y="110" width="510" height="40" as="geometry" />
        </mxCell>
        <mxCell id="OEtIv18NF1MfXvZT3ipg-81" value="PC1" style="shape=partialRectangle;html=1;whiteSpace=wrap;connectable=0;strokeColor=inherit;overflow=hidden;fillColor=none;top=0;left=0;bottom=0;right=0;pointerEvents=1;fontSize=16;" vertex="1" parent="OEtIv18NF1MfXvZT3ipg-80">
          <mxGeometry width="170" height="40" as="geometry">
            <mxRectangle width="170" height="40" as="alternateBounds" />
          </mxGeometry>
        </mxCell>
        <mxCell id="OEtIv18NF1MfXvZT3ipg-82" value="e0/0" style="shape=partialRectangle;html=1;whiteSpace=wrap;connectable=0;strokeColor=inherit;overflow=hidden;fillColor=none;top=0;left=0;bottom=0;right=0;pointerEvents=1;fontSize=16;" vertex="1" parent="OEtIv18NF1MfXvZT3ipg-80">
          <mxGeometry x="170" width="170" height="40" as="geometry">
            <mxRectangle width="170" height="40" as="alternateBounds" />
          </mxGeometry>
        </mxCell>
        <mxCell id="OEtIv18NF1MfXvZT3ipg-83" value="10.0.41.10" style="shape=partialRectangle;html=1;whiteSpace=wrap;connectable=0;strokeColor=inherit;overflow=hidden;fillColor=none;top=0;left=0;bottom=0;right=0;pointerEvents=1;fontSize=16;" vertex="1" parent="OEtIv18NF1MfXvZT3ipg-80">
          <mxGeometry x="340" width="170" height="40" as="geometry">
            <mxRectangle width="170" height="40" as="alternateBounds" />
          </mxGeometry>
        </mxCell>
        <mxCell id="OEtIv18NF1MfXvZT3ipg-87" value="&lt;font style=&quot;font-size: 30px;&quot;&gt;R1&lt;/font&gt;" style="sketch=0;points=[[0.5,0,0],[1,0.5,0],[0.5,1,0],[0,0.5,0],[0.145,0.145,0],[0.8555,0.145,0],[0.855,0.8555,0],[0.145,0.855,0]];verticalLabelPosition=bottom;html=1;verticalAlign=top;aspect=fixed;align=center;pointerEvents=1;shape=mxgraph.cisco19.rect;prIcon=router;fillColor=#FAFAFA;strokeColor=#005073;" vertex="1" parent="1">
          <mxGeometry x="160" y="410" width="140" height="140" as="geometry" />
        </mxCell>
        <mxCell id="OEtIv18NF1MfXvZT3ipg-88" value="" style="endArrow=none;html=1;rounded=0;exitX=0.994;exitY=0.547;exitDx=0;exitDy=0;exitPerimeter=0;entryX=0;entryY=0.5;entryDx=0;entryDy=0;entryPerimeter=0;strokeWidth=3;" edge="1" parent="1" source="OEtIv18NF1MfXvZT3ipg-87" target="OEtIv18NF1MfXvZT3ipg-89">
          <mxGeometry width="50" height="50" relative="1" as="geometry">
            <mxPoint x="330" y="470" as="sourcePoint" />
            <mxPoint x="420" y="490" as="targetPoint" />
          </mxGeometry>
        </mxCell>
        <mxCell id="OEtIv18NF1MfXvZT3ipg-98" value="&lt;font style=&quot;font-size: 20px;&quot;&gt;10.0.12.0/30&lt;/font&gt;" style="edgeLabel;html=1;align=center;verticalAlign=middle;resizable=0;points=[];" vertex="1" connectable="0" parent="OEtIv18NF1MfXvZT3ipg-88">
          <mxGeometry x="-0.1693" y="1" relative="1" as="geometry">
            <mxPoint x="13" as="offset" />
          </mxGeometry>
        </mxCell>
        <mxCell id="OEtIv18NF1MfXvZT3ipg-89" value="&lt;span style=&quot;font-size: 30px;&quot;&gt;R2&lt;/span&gt;" style="sketch=0;points=[[0.5,0,0],[1,0.5,0],[0.5,1,0],[0,0.5,0],[0.145,0.145,0],[0.8555,0.145,0],[0.855,0.8555,0],[0.145,0.855,0]];verticalLabelPosition=bottom;html=1;verticalAlign=top;aspect=fixed;align=center;pointerEvents=1;shape=mxgraph.cisco19.rect;prIcon=router;fillColor=#FAFAFA;strokeColor=#005073;" vertex="1" parent="1">
          <mxGeometry x="560" y="420" width="130" height="130" as="geometry" />
        </mxCell>
        <mxCell id="OEtIv18NF1MfXvZT3ipg-90" value="&lt;span style=&quot;font-size: 30px;&quot;&gt;R3&lt;/span&gt;" style="sketch=0;points=[[0.5,0,0],[1,0.5,0],[0.5,1,0],[0,0.5,0],[0.145,0.145,0],[0.8555,0.145,0],[0.855,0.8555,0],[0.145,0.855,0]];verticalLabelPosition=bottom;html=1;verticalAlign=top;aspect=fixed;align=center;pointerEvents=1;shape=mxgraph.cisco19.rect;prIcon=router;fillColor=#FAFAFA;strokeColor=#005073;" vertex="1" parent="1">
          <mxGeometry x="160" y="780" width="140" height="140" as="geometry" />
        </mxCell>
        <mxCell id="OEtIv18NF1MfXvZT3ipg-91" value="&lt;span style=&quot;font-size: 30px;&quot;&gt;R4&lt;/span&gt;" style="sketch=0;points=[[0.5,0,0],[1,0.5,0],[0.5,1,0],[0,0.5,0],[0.145,0.145,0],[0.8555,0.145,0],[0.855,0.8555,0],[0.145,0.855,0]];verticalLabelPosition=bottom;html=1;verticalAlign=top;aspect=fixed;align=center;pointerEvents=1;shape=mxgraph.cisco19.rect;prIcon=router;fillColor=#FAFAFA;strokeColor=#005073;" vertex="1" parent="1">
          <mxGeometry x="560" y="780" width="130" height="130" as="geometry" />
        </mxCell>
        <mxCell id="OEtIv18NF1MfXvZT3ipg-92" value="" style="endArrow=none;html=1;rounded=0;exitX=0.5;exitY=1;exitDx=0;exitDy=0;exitPerimeter=0;entryX=0.5;entryY=0;entryDx=0;entryDy=0;entryPerimeter=0;strokeWidth=3;" edge="1" parent="1" source="OEtIv18NF1MfXvZT3ipg-87" target="OEtIv18NF1MfXvZT3ipg-90">
          <mxGeometry width="50" height="50" relative="1" as="geometry">
            <mxPoint x="290" y="632" as="sourcePoint" />
            <mxPoint x="551" y="630" as="targetPoint" />
          </mxGeometry>
        </mxCell>
        <mxCell id="OEtIv18NF1MfXvZT3ipg-93" value="" style="endArrow=none;html=1;rounded=0;exitX=0.5;exitY=1;exitDx=0;exitDy=0;exitPerimeter=0;entryX=0.5;entryY=0;entryDx=0;entryDy=0;entryPerimeter=0;strokeWidth=3;" edge="1" parent="1" source="OEtIv18NF1MfXvZT3ipg-89" target="OEtIv18NF1MfXvZT3ipg-91">
          <mxGeometry width="50" height="50" relative="1" as="geometry">
            <mxPoint x="559.1700000000001" y="540" as="sourcePoint" />
            <mxPoint x="559.1700000000001" y="770" as="targetPoint" />
          </mxGeometry>
        </mxCell>
        <mxCell id="OEtIv18NF1MfXvZT3ipg-99" value="&lt;font style=&quot;font-size: 20px;&quot;&gt;10.0.24.0/29&lt;/font&gt;" style="edgeLabel;html=1;align=center;verticalAlign=middle;resizable=0;points=[];" vertex="1" connectable="0" parent="OEtIv18NF1MfXvZT3ipg-93">
          <mxGeometry x="0.1116" y="-2" relative="1" as="geometry">
            <mxPoint as="offset" />
          </mxGeometry>
        </mxCell>
        <mxCell id="OEtIv18NF1MfXvZT3ipg-94" value="&lt;span style=&quot;font-size: 30px;&quot;&gt;ISP&lt;/span&gt;" style="outlineConnect=0;dashed=0;verticalLabelPosition=bottom;verticalAlign=top;align=center;html=1;shape=mxgraph.aws3.internet_gateway;fillColor=#F58534;gradientColor=none;" vertex="1" parent="1">
          <mxGeometry x="195.5" y="1140" width="69" height="72" as="geometry" />
        </mxCell>
        <mxCell id="OEtIv18NF1MfXvZT3ipg-95" value="" style="endArrow=none;html=1;rounded=0;exitX=0.5;exitY=1;exitDx=0;exitDy=0;exitPerimeter=0;strokeWidth=3;" edge="1" parent="1" source="OEtIv18NF1MfXvZT3ipg-90" target="OEtIv18NF1MfXvZT3ipg-94">
          <mxGeometry width="50" height="50" relative="1" as="geometry">
            <mxPoint x="390" y="880" as="sourcePoint" />
            <mxPoint x="390" y="1110" as="targetPoint" />
          </mxGeometry>
        </mxCell>
        <mxCell id="OEtIv18NF1MfXvZT3ipg-96" value="&lt;span style=&quot;font-size: 30px;&quot;&gt;PC1&lt;/span&gt;" style="shape=mxgraph.cisco.computers_and_peripherals.pc;html=1;pointerEvents=1;dashed=0;fillColor=#036897;strokeColor=#ffffff;strokeWidth=2;verticalLabelPosition=bottom;verticalAlign=top;align=center;outlineConnect=0;" vertex="1" parent="1">
          <mxGeometry x="563" y="1070" width="124" height="130" as="geometry" />
        </mxCell>
        <mxCell id="OEtIv18NF1MfXvZT3ipg-97" value="" style="endArrow=none;html=1;rounded=0;exitX=0.5;exitY=1;exitDx=0;exitDy=0;exitPerimeter=0;entryX=0.5;entryY=0;entryDx=0;entryDy=0;entryPerimeter=0;strokeWidth=3;" edge="1" parent="1" source="OEtIv18NF1MfXvZT3ipg-91" target="OEtIv18NF1MfXvZT3ipg-96">
          <mxGeometry width="50" height="50" relative="1" as="geometry">
            <mxPoint x="790" y="830" as="sourcePoint" />
            <mxPoint x="790" y="1060" as="targetPoint" />
          </mxGeometry>
        </mxCell>
        <mxCell id="OEtIv18NF1MfXvZT3ipg-100" value="&lt;font style=&quot;font-size: 20px;&quot;&gt;10.0.13.0/27&lt;/font&gt;" style="edgeLabel;html=1;align=center;verticalAlign=middle;resizable=0;points=[];" vertex="1" connectable="0" parent="1">
          <mxGeometry x="230" y="670" as="geometry" />
        </mxCell>
        <mxCell id="OEtIv18NF1MfXvZT3ipg-101" value="&lt;font style=&quot;font-size: 20px;&quot;&gt;209.165.201.0/27&lt;/font&gt;" style="edgeLabel;html=1;align=center;verticalAlign=middle;resizable=0;points=[];" vertex="1" connectable="0" parent="1">
          <mxGeometry x="230" y="1050" as="geometry" />
        </mxCell>
        <mxCell id="OEtIv18NF1MfXvZT3ipg-102" value="&lt;font style=&quot;font-size: 20px;&quot;&gt;10.0.41.0/24&lt;/font&gt;" style="edgeLabel;html=1;align=center;verticalAlign=middle;resizable=0;points=[];" vertex="1" connectable="0" parent="1">
          <mxGeometry x="625" y="1000" as="geometry" />
        </mxCell>
        <mxCell id="OEtIv18NF1MfXvZT3ipg-103" value="&lt;font style=&quot;font-size: 20px;&quot;&gt;e0/2&lt;/font&gt;" style="edgeLabel;html=1;align=center;verticalAlign=middle;resizable=0;points=[];" vertex="1" connectable="0" parent="1">
          <mxGeometry x="180" y="930" as="geometry">
            <mxPoint x="-2" as="offset" />
          </mxGeometry>
        </mxCell>
        <mxCell id="OEtIv18NF1MfXvZT3ipg-104" value="&lt;font style=&quot;font-size: 20px;&quot;&gt;e0/2&lt;/font&gt;" style="edgeLabel;html=1;align=center;verticalAlign=middle;resizable=0;points=[];" vertex="1" connectable="0" parent="1">
          <mxGeometry x="320" y="940" as="geometry">
            <mxPoint x="363" y="-11" as="offset" />
          </mxGeometry>
        </mxCell>
        <mxCell id="OEtIv18NF1MfXvZT3ipg-105" value="" style="endArrow=none;html=1;rounded=0;exitX=1;exitY=0.5;exitDx=0;exitDy=0;exitPerimeter=0;entryX=0;entryY=0.5;entryDx=0;entryDy=0;entryPerimeter=0;strokeWidth=3;" edge="1" parent="1" source="OEtIv18NF1MfXvZT3ipg-90" target="OEtIv18NF1MfXvZT3ipg-91">
          <mxGeometry width="50" height="50" relative="1" as="geometry">
            <mxPoint x="302" y="772" as="sourcePoint" />
            <mxPoint x="563" y="770" as="targetPoint" />
          </mxGeometry>
        </mxCell>
        <mxCell id="OEtIv18NF1MfXvZT3ipg-106" value="&lt;font style=&quot;font-size: 20px;&quot;&gt;10.0.24.0/28&lt;/font&gt;" style="edgeLabel;html=1;align=center;verticalAlign=middle;resizable=0;points=[];" vertex="1" connectable="0" parent="OEtIv18NF1MfXvZT3ipg-105">
          <mxGeometry x="-0.1693" y="1" relative="1" as="geometry">
            <mxPoint x="13" as="offset" />
          </mxGeometry>
        </mxCell>
        <mxCell id="OEtIv18NF1MfXvZT3ipg-107" value="&lt;font style=&quot;font-size: 20px;&quot;&gt;e0/1&lt;/font&gt;" style="edgeLabel;html=1;align=center;verticalAlign=middle;resizable=0;points=[];" vertex="1" connectable="0" parent="1">
          <mxGeometry x="320" y="870" as="geometry">
            <mxPoint x="-2" as="offset" />
          </mxGeometry>
        </mxCell>
        <mxCell id="OEtIv18NF1MfXvZT3ipg-108" value="&lt;font style=&quot;font-size: 20px;&quot;&gt;e0/1&lt;/font&gt;" style="edgeLabel;html=1;align=center;verticalAlign=middle;resizable=0;points=[];" vertex="1" connectable="0" parent="1">
          <mxGeometry x="540" y="870" as="geometry">
            <mxPoint x="-2" as="offset" />
          </mxGeometry>
        </mxCell>
        <mxCell id="OEtIv18NF1MfXvZT3ipg-109" value="&lt;font style=&quot;font-size: 20px;&quot;&gt;e0/0&lt;/font&gt;" style="edgeLabel;html=1;align=center;verticalAlign=middle;resizable=0;points=[];" vertex="1" connectable="0" parent="1">
          <mxGeometry x="600" y="770" as="geometry">
            <mxPoint x="-2" as="offset" />
          </mxGeometry>
        </mxCell>
        <mxCell id="OEtIv18NF1MfXvZT3ipg-110" value="&lt;font style=&quot;font-size: 20px;&quot;&gt;e0/0&lt;/font&gt;" style="edgeLabel;html=1;align=center;verticalAlign=middle;resizable=0;points=[];" vertex="1" connectable="0" parent="1">
          <mxGeometry x="550" y="770" as="geometry">
            <mxPoint x="-295" y="-1" as="offset" />
          </mxGeometry>
        </mxCell>
        <mxCell id="OEtIv18NF1MfXvZT3ipg-111" value="&lt;font style=&quot;font-size: 20px;&quot;&gt;e0/1&lt;/font&gt;" style="edgeLabel;html=1;align=center;verticalAlign=middle;resizable=0;points=[];" vertex="1" connectable="0" parent="1">
          <mxGeometry x="480" y="560" as="geometry">
            <mxPoint x="-295" y="-1" as="offset" />
          </mxGeometry>
        </mxCell>
        <mxCell id="OEtIv18NF1MfXvZT3ipg-112" value="&lt;font style=&quot;font-size: 20px;&quot;&gt;e0/1&lt;/font&gt;" style="edgeLabel;html=1;align=center;verticalAlign=middle;resizable=0;points=[];" vertex="1" connectable="0" parent="1">
          <mxGeometry x="880" y="560" as="geometry">
            <mxPoint x="-295" y="-1" as="offset" />
          </mxGeometry>
        </mxCell>
        <mxCell id="OEtIv18NF1MfXvZT3ipg-113" value="&lt;font style=&quot;font-size: 20px;&quot;&gt;e0/0&lt;/font&gt;" style="edgeLabel;html=1;align=center;verticalAlign=middle;resizable=0;points=[];" vertex="1" connectable="0" parent="1">
          <mxGeometry x="620" y="460" as="geometry">
            <mxPoint x="-295" y="-1" as="offset" />
          </mxGeometry>
        </mxCell>
        <mxCell id="OEtIv18NF1MfXvZT3ipg-114" value="&lt;font style=&quot;font-size: 20px;&quot;&gt;e0/0&lt;/font&gt;" style="edgeLabel;html=1;align=center;verticalAlign=middle;resizable=0;points=[];" vertex="1" connectable="0" parent="1">
          <mxGeometry x="830" y="460" as="geometry">
            <mxPoint x="-295" y="-1" as="offset" />
          </mxGeometry>
        </mxCell>
      </root>
    </mxGraphModel>
  </diagram>
</mxfile>
